# xmcd
#
# Track frame offsets: 
#        175
#        8445
#        27862
#        40965
#        77410
#        94855
#        122275
#        144130
#        166695
#        189730
#        204157
#        221755
#
# Disc length: 3440 seconds
#
# Revision: 0
# Processed by: cddbd v1.5.2PL0 Copyright (c) Steve Scherf et al.
# Submitted via: ExactAudioCopy v1.0b1
#
DISCID=870d6e0c
DTITLE=Various Artist - Сборник питерских блюзов 'Я родился здесь'
DYEAR=1995
DGENRE=Blues
TTITLE0=Наиль Кадыров (Почта. Зоопарк. Оазис Ю.) - Иллюминатор (Инстру
TTITLE0=ментал)
TTITLE1=Зоопарк - Blues de Moscow
TTITLE2=Оазис Ю. Алексей "Рыба" Рыбин (Кино), Н. Кадыров, Михаил "Фан"
TTITLE2=Файнштейн (Акварум, Трилистник), А, Титов (Акварум, Кино), Ю.
TTITLE2=Ни
TTITLE3=А. Ляпин (Аквариум, Теле-У, ДДТ) - Холодное пиво
TTITLE4=Трилистник. Андрей "Дюша" Романов (Аквариум), Михаил "Фан" Фай
TTITLE4=нштейн, Н. Кадыров - Змеи
TTITLE5=Владимир Рекшан и гр. Санкт-Петербург - Философский Блюз
TTITLE6=Михаил Владимиров (Мифы, Чиж) - Мечты
TTITLE7=Линия Солидуса - Петербург
TTITLE8=Мифы - Не задавай вопрос
TTITLE9=Засада - Черно-белый блюз
TTITLE10=Опасные соседи - Все самолеты...
TTITLE11=Юрий Морозов - Ночной полет
EXTD=
EXTT0=
EXTT1=
EXTT2=
EXTT3=
EXTT4=
EXTT5=
EXTT6=
EXTT7=
EXTT8=
EXTT9=
EXTT10=
EXTT11=
PLAYORDER=
